HIERARCHY
ROOT Hips
{
	OFFSET 50.377998 -11.020316 100.695999
	CHANNELS 6 Xposition Yposition Zposition Xrotation Yrotation Zrotation
	JOINT spine
	{
		OFFSET 0.000000 -0.507026 8.817039
		CHANNELS 3 Xrotation Yrotation Zrotation
		JOINT spine1
		{
			OFFSET 0.000000 -0.000002 10.776604
			CHANNELS 3 Xrotation Yrotation Zrotation
			JOINT spine2
			{
				OFFSET 0.000000 -0.000001 10.325897
				CHANNELS 3 Xrotation Yrotation Zrotation
				JOINT Neck
				{
					OFFSET 0.000000 -1.263955 26.511002
					CHANNELS 3 Xrotation Yrotation Zrotation
					JOINT Head
					{
						OFFSET 0.000000 -0.000001 8.009659
						CHANNELS 3 Xrotation Yrotation Zrotation
						End Site
						{
							OFFSET 0.000000 6.393857 19.387894
						}
					}
				}
				JOINT RightShoulder
				{
					OFFSET -4.347950 0.605420 11.151199
					CHANNELS 3 Xrotation Yrotation Zrotation
					JOINT RightArm
					{
						OFFSET 0.000000 -0.000003 14.625793
						CHANNELS 3 Xrotation Yrotation Zrotation
						JOINT RightArmRoll
						{
							OFFSET 0.000000 -0.000001 7.383408
							CHANNELS 3 Xrotation Yrotation Zrotation
							JOINT RightForeArm
							{
								OFFSET 0.000000 -0.000004 21.505203
								CHANNELS 3 Xrotation Yrotation Zrotation
								JOINT RightForeArmRoll
								{
									OFFSET 0.000000 -0.000001 8.285324
									CHANNELS 3 Xrotation Yrotation Zrotation
									JOINT RightHand
									{
										OFFSET 0.000000 -0.000003 16.626801
										CHANNELS 3 Xrotation Yrotation Zrotation
										End Site
										{
											OFFSET 0.000000 0.000000 0.100006
										}
									}
								}
							}
						}
					}
				}
				JOINT LeftShoulder
				{
					OFFSET 4.347950 0.605420 11.151199
					CHANNELS 3 Xrotation Yrotation Zrotation
					JOINT LeftArm
					{
						OFFSET 0.000000 -0.000003 14.625793
						CHANNELS 3 Xrotation Yrotation Zrotation
						JOINT LeftArmRoll
						{
							OFFSET 0.000000 -0.000001 7.383408
							CHANNELS 3 Xrotation Yrotation Zrotation
							JOINT LeftForeArm
							{
								OFFSET 0.000000 -0.000004 21.505203
								CHANNELS 3 Xrotation Yrotation Zrotation
								JOINT LeftForeArmRoll
								{
									OFFSET 0.000000 -0.000001 8.285324
									CHANNELS 3 Xrotation Yrotation Zrotation
									JOINT LeftHand
									{
										OFFSET 0.000000 -0.000003 16.626801
										CHANNELS 3 Xrotation Yrotation Zrotation
										End Site
										{
											OFFSET 0.000000 0.000000 0.100006
										}
									}
								}
							}
						}
					}
				}
			}
		}
	}
	JOINT RightUpLeg
	{
		OFFSET -7.815102 1.202170 -1.433090
		CHANNELS 3 Xrotation Yrotation Zrotation
		JOINT RightUpLegRoll
		{
			OFFSET 0.000000 -0.000003 19.495895
			CHANNELS 3 Xrotation Yrotation Zrotation
			JOINT RightLeg
			{
				OFFSET 0.000000 0.000004 -24.142700
				CHANNELS 3 Xrotation Yrotation Zrotation
				JOINT RightLegRoll
				{
					OFFSET 0.000000 -0.000004 24.221703
					CHANNELS 3 Xrotation Yrotation Zrotation
					JOINT RightFoot
					{
						OFFSET 0.000000 -0.000004 20.160500
						CHANNELS 3 Xrotation Yrotation Zrotation
						JOINT RightToeBase
						{
							OFFSET 0.000000 -0.000003 16.853195
							CHANNELS 3 Xrotation Yrotation Zrotation
							End Site
							{
								OFFSET 0.007145 0.940780 8.161865
							}
						}
					}
				}
			}
		}
	}
	JOINT LeftUpLeg
	{
		OFFSET 7.815102 1.202170 -1.433090
		CHANNELS 3 Xrotation Yrotation Zrotation
		JOINT LeftUpLegRoll
		{
			OFFSET 0.000000 -0.000003 19.496002
			CHANNELS 3 Xrotation Yrotation Zrotation
			JOINT LeftLeg
			{
				OFFSET 0.000000 -0.000004 24.142593
				CHANNELS 3 Xrotation Yrotation Zrotation
				JOINT LeftLegRoll
				{
					OFFSET 0.000000 -0.000005 24.445602
					CHANNELS 3 Xrotation Yrotation Zrotation
					JOINT LeftFoot
					{
						OFFSET 0.000000 -0.000003 19.936600
						CHANNELS 3 Xrotation Yrotation Zrotation
						JOINT LeftToeBase
						{
							OFFSET 0.000000 -0.000003 16.853195
							CHANNELS 3 Xrotation Yrotation Zrotation
							End Site
							{
								OFFSET -0.032013 0.940780 8.161865
							}
						}
					}
				}
			}
		}
	}
}
MOTION
Frames: 10
Frame Time: 0.041667
51.047401 -13.414122 100.540001 1.587018 -0.260677 2.024122 -3.217763 0.224392 -0.078024 -2.432436 0.452144 -0.146246 -0.787336 0.449969 -0.151653 14.874962 5.218216 1.112837 4.366164 2.010503 0.832061 -13.699099 -11.283455 -13.722811 -148.703887 -184.493559 -96.186651 -0.000001 -0.000000 -0.000000 39.256949 3.382850 1.032298 0.000001 -0.000026 -2.999999 -5.000221 -7.998754 0.000169 -16.505362 24.920037 18.800348 -151.438982 195.167915 94.516711 0.000001 -0.000002 0.000003 38.735079 -7.197749 2.056509 0.000003 -0.000005 2.999990 -5.000240 7.998760 -0.000156 -1.103350 -178.287308 -1.264901 -179.999991 0.000005 -1.015999 175.987624 -0.599524 -0.323062 -0.000007 0.000002 0.035176 68.912838 6.892357 2.147344 25.455553 -7.355610 -0.001254 -0.986214 177.225405 2.430004 -0.000005 -0.000004 -1.037280 -5.304295 2.460432 0.333522 -0.000003 -0.000003 -0.070667 69.364690 -6.894244 -2.108360 25.859924 7.355617 -0.609009 
51.049805 -13.411020 100.538994 1.598968 -0.267287 2.002271 -3.224456 0.225019 -0.078367 -2.445817 0.453338 -0.147606 -0.800722 0.451157 -0.153026 14.980389 5.129452 1.101294 4.248738 2.186649 0.798911 -13.688374 -11.218032 -13.699800 -148.643044 -184.576478 -96.222011 -0.000000 0.000000 -0.000000 39.172774 3.371731 1.024746 -0.000002 -0.000026 -2.999999 -5.000220 -7.998753 0.000168 -16.529379 24.922578 18.835766 -151.426114 195.224469 94.496726 0.000001 -0.000002 0.000003 38.734430 -7.201358 2.057863 0.000003 -0.000005 2.999988 -5.000240 7.998763 -0.000156 -1.115200 -178.278319 -1.260960 -179.999991 0.000005 -1.015999 175.992405 -0.603520 -0.322294 -0.000006 0.000002 0.035179 68.911896 6.892372 2.147305 25.456260 -7.355613 0.001027 -0.977824 177.233396 2.434642 -0.000005 -0.000005 -1.037350 -5.275431 2.461134 0.332620 -0.000003 -0.000003 -0.070389 69.351999 -6.894221 -2.108246 25.861541 7.355617 -0.611383 
51.053703 -13.429021 100.538979 1.610771 -0.274191 1.979310 -3.231275 0.225579 -0.078441 -2.459447 0.454413 -0.148503 -0.814353 0.452238 -0.153937 15.112224 5.015096 1.085217 4.098561 2.404411 0.756898 -13.677617 -11.147250 -13.676230 -148.578007 -184.648878 -96.254707 0.000000 -0.000000 -0.000000 39.089787 3.360341 1.017344 -0.000001 -0.000026 -3.000000 -5.000218 -7.998753 0.000168 -16.554026 24.928838 18.872252 -151.411729 195.281092 94.479794 -0.000001 -0.000003 0.000003 38.732848 -7.203759 2.058964 0.000001 -0.000005 2.999990 -5.000242 7.998762 -0.000156 -1.127770 -178.269344 -1.256934 -179.999991 0.000005 -1.015999 175.995848 -0.607516 -0.322537 -0.000006 0.000002 0.035183 68.911363 6.892343 2.147331 25.456866 -7.355624 0.003287 -0.968447 177.242398 2.439627 -0.000005 -0.000004 -1.037430 -5.245535 2.461650 0.331759 -0.000004 -0.000003 -0.070130 69.338790 -6.894241 -2.108171 25.863261 7.355620 -0.613885 
51.053905 -13.427523 100.539993 1.622410 -0.281312 1.955537 -3.238164 0.226085 -0.078275 -2.473228 0.455400 -0.148974 -0.828135 0.453241 -0.154419 15.265855 4.878936 1.065658 3.921173 2.657372 0.708143 -13.666978 -11.071879 -13.652510 -148.509363 -184.711674 -96.285074 0.000000 -0.000001 0.000001 39.008009 3.348742 1.010073 0.000000 -0.000026 -3.000000 -5.000221 -7.998752 0.000168 -16.579115 24.938250 18.909288 -151.396361 195.337045 94.465758 0.000001 -0.000002 0.000004 38.730349 -7.204996 2.059795 0.000002 -0.000005 2.999990 -5.000238 7.998760 -0.000155 -1.140953 -178.260342 -1.252832 -179.999991 0.000005 -1.015999 175.998143 -0.611510 -0.321781 -0.000006 0.000002 0.035186 68.911042 6.892358 2.147355 25.456865 -7.355623 0.003286 -0.958400 177.250376 2.444940 -0.000005 -0.000004 -1.037510 -5.215107 2.461978 0.330942 -0.000004 -0.000003 -0.069886 69.325457 -6.894214 -2.108197 25.864987 7.355623 -0.616457 
51.055504 -13.411320 100.537987 1.633875 -0.288567 1.931221 -3.245086 0.226555 -0.077895 -2.487069 0.456327 -0.149054 -0.841971 0.454192 -0.154510 15.436658 4.724782 1.043639 3.722081 2.939068 0.654710 -13.656621 -10.993181 -13.628780 -148.437878 -184.765783 -96.313372 -0.000001 0.000001 0.000001 38.927229 3.337031 1.002884 -0.000001 -0.000026 -3.000000 -5.000221 -7.998753 0.000169 -16.604234 24.950281 18.946540 -151.380174 195.391959 94.454816 -0.000001 -0.000002 0.000004 38.726811 -7.205157 2.060391 0.000002 -0.000006 2.999988 -5.000238 7.998762 -0.000157 -1.154636 -178.251354 -1.248709 -179.999991 0.000005 -1.015999 175.999358 -0.615490 -0.322047 -0.000006 0.000002 0.035190 68.911042 6.892358 2.147355 25.456865 -7.355622 0.003286 -0.947992 177.260375 2.450466 -0.000005 -0.000005 -1.037580 -5.184599 2.462128 0.330176 -0.000003 -0.000003 -0.069658 69.312036 -6.894214 -2.108131 25.866796 7.355617 -0.619102 
51.055603 -13.418720 100.538986 1.645142 -0.295877 1.906658 -3.251976 0.227003 -0.077327 -2.500859 0.457220 -0.148778 -0.855762 0.455118 -0.154245 15.620019 4.556439 1.020135 3.506798 3.243028 0.598529 -13.646487 -10.912131 -13.605363 -148.364550 -184.812106 -96.339914 0.000000 -0.000000 0.000001 38.847258 3.325280 0.995796 -0.000000 -0.000025 -2.999999 -5.000217 -7.998753 0.000168 -16.629315 24.964358 18.983835 -151.363549 195.445289 94.446818 -0.000000 -0.000003 0.000003 38.722368 -7.204294 2.060777 0.000003 -0.000005 2.999989 -5.000240 7.998763 -0.000156 -1.168706 -178.242351 -1.244582 -179.999991 0.000005 -1.015999 175.999686 -0.619483 -0.322322 -0.000006 0.000002 0.035193 68.911261 6.892371 2.147342 25.456863 -7.355622 0.003287 -0.937533 177.269364 2.456199 -0.000005 -0.000004 -1.037660 -5.154501 2.462125 0.329467 -0.000004 -0.000003 -0.069445 69.298812 -6.894183 -2.108149 25.868717 7.355617 -0.621793 
51.050903 -13.427622 100.538986 1.656206 -0.303160 1.882115 -3.258806 0.227445 -0.076601 -2.514511 0.458110 -0.148184 -0.869414 0.456048 -0.153661 15.811432 4.377718 0.996027 3.280846 3.562725 0.541369 -13.636933 -10.829591 -13.582524 -148.290046 -184.851557 -96.364947 0.000000 0.000001 0.000001 38.767993 3.313583 0.988753 0.000001 -0.000025 -2.999999 -5.000223 -7.998753 0.000168 -16.653956 24.980034 19.020574 -151.346870 195.496625 94.441941 -0.000001 -0.000001 0.000004 38.717020 -7.202456 2.060968 0.000001 -0.000005 2.999991 -5.000241 7.998763 -0.000156 -1.183070 -178.233377 -1.240468 -179.999991 0.000005 -1.015999 175.999235 -0.622481 -0.321540 -0.000006 0.000002 0.035197 68.911677 6.892361 2.147417 25.456868 -7.355622 0.003287 -0.927344 177.278339 2.462057 -0.000005 -0.000004 -1.037740 -5.125274 2.461969 0.328819 -0.000003 -0.000003 -0.069245 69.286020 -6.894166 -2.108040 25.870532 7.355622 -0.624472 
51.052902 -13.425319 100.537987 1.667036 -0.310335 1.857902 -3.265506 0.227894 -0.075742 -2.527921 0.459026 -0.147305 -0.882829 0.457007 -0.152795 16.006376 4.192466 0.972075 3.049726 3.891587 0.484791 -13.627812 -10.746833 -13.560545 -148.215009 -184.885066 -96.388729 -0.000001 -0.000001 0.000000 38.689245 3.302005 0.981761 0.000001 -0.000026 -2.999998 -5.000223 -7.998753 0.000167 -16.678055 24.996542 19.056397 -151.330423 195.545570 94.440281 -0.000000 -0.000002 0.000002 38.710661 -7.199731 2.060967 0.000001 -0.000004 2.999990 -5.000242 7.998762 -0.000156 -1.197601 -178.224402 -1.236414 -179.999991 0.000005 -1.015999 175.998115 -0.626473 -0.321831 -0.000006 0.000002 0.035201 68.912217 6.892393 2.147388 25.456868 -7.355622 0.003286 -0.917726 177.288338 2.467981 -0.000005 -0.000004 -1.037810 -5.097386 2.461678 0.328236 -0.000003 -0.000003 -0.069057 69.273664 -6.894167 -2.108012 25.872456 7.355623 -0.627155 
51.043102 -13.427618 100.536995 1.677627 -0.317322 1.834274 -3.272056 0.228369 -0.074778 -2.541012 0.459994 -0.146180 -0.895913 0.458023 -0.151680 16.200136 4.004519 0.948996 2.818958 4.223012 0.430130 -13.619458 -10.664620 -13.539667 -148.140328 -184.913534 -96.411685 0.000001 -0.000001 -0.000000 38.610916 3.290646 0.974781 -0.000000 -0.000026 -2.999999 -5.000218 -7.998757 0.000169 -16.701354 25.013621 19.091234 -151.314618 195.591469 94.441743 -0.000001 -0.000003 0.000003 38.703216 -7.196193 2.060796 -0.000001 -0.000005 2.999989 -5.000241 7.998761 -0.000156 -1.212194 -178.216397 -1.232425 -179.999991 0.000005 -1.015999 175.996503 -0.630464 -0.322129 -0.000006 0.000002 0.035205 68.912948 6.892362 2.147337 25.456866 -7.355622 0.003287 -0.909002 177.297340 2.473936 -0.000005 -0.000004 -1.037890 -5.071321 2.461260 0.327726 -0.000003 -0.000003 -0.068882 69.262128 -6.894135 -2.108024 25.874268 7.355619 -0.629779 
51.047802 -13.432121 100.539993 1.687944 -0.324036 1.811529 -3.278375 0.228883 -0.073736 -2.553663 0.461046 -0.144842 -0.908569 0.459123 -0.150355 16.388190 3.817744 0.927317 2.594041 4.550311 0.378492 -13.611723 -10.584035 -13.520215 -148.066849 -184.937863 -96.433863 -0.000000 -0.000001 -0.000000 38.532796 3.279582 0.967810 0.000001 -0.000025 -3.000000 -5.000219 -7.998751 0.000167 -16.723524 25.030533 19.124318 -151.299632 195.633885 94.446258 0.000001 -0.000002 0.000004 38.694879 -7.191877 2.060489 0.000003 -0.000005 2.999989 -5.000240 7.998762 -0.000157 -1.226756 -178.207408 -1.228571 -179.999991 0.000005 -1.015999 175.994495 -0.633447 -0.321362 -0.000006 0.000002 0.035208 68.913583 6.892365 2.147398 25.456866 -7.355623 0.003287 -0.901481 177.306329 2.479830 -0.000005 -0.000004 -1.037970 -5.047547 2.460732 0.327293 -0.000004 -0.000003 -0.068716 69.251554 -6.894111 -2.107976 25.876090 7.355624 -0.632327 
